<?xml version="1.0" encoding="UTF-8" standalone="no"?>
<!DOCTYPE svg PUBLIC "-//W3C//DTD SVG 1.1//EN" "http://www.w3.org/Graphics/SVG/1.1/DTD/svg11.dtd">
<svg width="100%" height="100%" viewBox="0 0 358 873" version="1.1" xmlns="http://www.w3.org/2000/svg" xmlns:xlink="http://www.w3.org/1999/xlink" xml:space="preserve" xmlns:serif="http://www.serif.com/" style="fill-rule:evenodd;clip-rule:evenodd;stroke-linecap:square;stroke-linejoin:round;stroke-miterlimit:1.5;">
    <g transform="matrix(1,0,0,1,-7648.67,-13.4283)">
        <g transform="matrix(1,0,0,1,-0.207349,0)">
            <g id="Body-male" serif:id="Body male" transform="matrix(1,0,0,1,0,-72)">
                <g id="Body-male1" serif:id="Body male" transform="matrix(1,0,0,1,5.96315,-3.97902)">
                    <path d="M7821.51,95.066C7824.53,95.066 7827.57,95.18 7830.58,95.51C7833.74,95.857 7837.3,96.12 7840.48,97.146C7844.13,98.322 7849.09,100.215 7852.49,102.568C7855.79,104.858 7858.79,107.846 7860.83,111.261C7862.87,114.677 7864.03,118.976 7864.72,123.061C7865.46,127.521 7865.29,134.308 7865.29,138.025C7865.29,140.479 7864.57,143.853 7864.72,145.364C7864.79,146.11 7865.51,146.971 7866.15,147.091C7866.8,147.211 7867.88,145.575 7868.6,146.083C7869.42,146.659 7870.61,148.905 7871.05,150.544C7871.65,152.798 7872.2,156.588 7872.2,159.609C7872.2,162.631 7871.82,166.085 7871.05,168.675C7870.35,171.02 7868.99,173.139 7867.59,175.15C7866.13,177.26 7863.71,180.114 7862.27,181.337C7861.38,182.094 7859.56,181.625 7858.96,182.488C7858.36,183.352 7858.87,185.185 7858.67,186.517C7858.39,188.484 7858.1,191.801 7857.23,194.287C7856.35,196.83 7853.84,199.002 7853.35,201.77C7852.8,204.912 7853.47,209.78 7853.92,213.137C7854.33,216.123 7854.98,219.109 7856.08,221.915C7857.2,224.763 7858.77,227.898 7860.61,230.224C7862.41,232.482 7864.61,234.536 7867.16,235.872C7870.24,237.485 7875.1,238.798 7879.11,239.901C7883.08,240.996 7888.03,241.436 7891.19,242.491C7893.68,243.319 7895.8,245.297 7898.1,246.233C7900.31,247.13 7902.66,247.669 7905.01,248.103C7908.89,248.823 7916.33,249.063 7921.41,250.549C7926.37,252.001 7931.51,254.123 7935.51,257.025C7939.5,259.913 7942.95,264.051 7945.44,267.96C7947.86,271.752 7949.71,276.046 7950.48,280.479C7951.51,286.475 7950.93,298.01 7951.63,303.934C7952.11,308.058 7953.8,311.956 7954.65,316.021C7955.7,321.057 7956.89,328.102 7957.96,334.151C7959.06,340.386 7960.61,346.945 7961.27,353.433C7962.18,362.354 7963.09,377.679 7963.43,387.679C7963.72,396.26 7962.88,406.337 7963.28,413.436C7963.61,419.104 7965.01,424.707 7965.87,430.271C7966.73,435.788 7968.06,441.927 7968.46,446.819C7968.82,451.073 7968.49,455.359 7968.32,459.625C7968.15,463.942 7967.81,468.36 7967.46,472.72C7966.88,479.746 7965.42,493.68 7964.86,501.786C7964.42,508.298 7964.07,516.823 7964.15,521.355C7964.19,523.926 7965.01,526.535 7965.3,528.982C7965.57,531.323 7966.02,534.234 7965.87,536.032C7965.77,537.364 7964.51,538.44 7964.43,539.773C7964.29,542.316 7965.02,547.443 7965.01,551.285C7964.99,559.415 7965.06,580.567 7964.29,588.553C7963.93,592.314 7961.94,595.748 7960.4,599.201C7958.51,603.47 7955.13,610.784 7952.92,614.166C7951.49,616.355 7949.72,618.928 7947.17,619.49C7943.35,620.329 7933.86,619.922 7930.04,619.202C7927.74,618.768 7925.73,616.78 7924.29,615.173C7922.89,613.607 7921.53,610.88 7921.41,609.561C7921.32,608.514 7922.52,607.16 7923.57,607.259C7924.84,607.379 7927.09,609.849 7929.04,610.281C7930.98,610.713 7933.18,610.142 7935.22,609.849C7937.41,609.537 7940.55,609.537 7942.13,608.41C7943.71,607.283 7944.07,604.948 7944.72,603.086C7945.46,600.976 7946.26,597.666 7946.59,595.748C7946.83,594.377 7947.11,592.916 7946.74,591.575C7946.3,590.016 7944.96,587.57 7944,586.395C7943.25,585.477 7941.87,584.356 7940.98,584.524C7940.09,584.692 7939.18,586.279 7938.68,587.402C7937.74,589.512 7936.45,594.525 7935.37,597.187C7934.5,599.334 7933.21,602.319 7932.2,603.374C7931.54,604.069 7930.14,604.022 7929.32,603.518C7928.51,603.014 7927.59,601.572 7927.31,600.352C7926.85,598.338 7926.53,594.414 7926.59,591.431C7926.66,588.049 7927.3,583.846 7927.74,580.063C7928.2,576.154 7928.32,571.915 7929.32,567.976C7930.55,563.156 7933.21,555.146 7935.08,551.141C7936.35,548.412 7939.6,546.806 7940.55,543.946C7941.58,540.829 7941.53,536.271 7941.27,532.435C7940.98,528.214 7939.74,523.206 7938.82,518.621C7937.79,513.489 7936.33,507.301 7935.08,501.642C7933.71,495.455 7931.98,488.238 7930.62,481.497C7929.01,473.559 7926.52,461.496 7925.44,454.014C7924.61,448.253 7923.99,442.42 7924.14,436.603C7924.31,430.127 7926.06,419.959 7926.45,415.163C7926.64,412.724 7927.19,410.153 7926.45,407.824C7925.61,405.21 7922.96,402.332 7921.41,399.478C7919.06,395.161 7914.24,386.336 7912.35,381.923C7911.13,379.101 7910.71,375.112 7910.04,373.002C7909.63,371.693 7909.08,369.285 7908.32,369.261C7907.55,369.237 7906.18,371.513 7905.44,372.858C7904.26,374.993 7902.53,378.942 7901.27,382.067C7899.8,385.689 7897.87,390.308 7896.66,394.586C7894.79,401.181 7891.26,413.868 7890.04,421.638C7889.03,428.086 7888.59,434.721 7889.32,441.207C7890.16,448.666 7893.18,457.99 7895.08,466.388C7897.02,474.974 7899.41,483.863 7900.98,492.721C7902.87,503.417 7904.74,518.381 7906.45,530.564C7908.09,542.308 7909.66,554.061 7911.19,565.818C7912.78,577.929 7915.01,590.975 7915.94,603.23C7916.86,615.238 7916.97,628.195 7916.81,639.347C7916.65,649.629 7915.13,660.236 7914.94,670.14C7914.75,679.686 7915.44,692.276 7915.65,698.775C7915.77,702.232 7916.27,705.677 7916.23,709.135C7916.18,713.068 7915.83,717.976 7915.37,722.373C7914.89,726.882 7913.18,731.75 7913.35,736.187C7913.52,740.57 7915.1,744.795 7916.37,748.993C7918.03,754.461 7921.43,762.687 7923.28,768.994C7925,774.856 7926.46,780.81 7927.45,786.837C7928.56,793.552 7929.85,802.377 7929.9,809.284C7929.94,815.656 7928.61,821.965 7927.74,828.278C7926.76,835.449 7924.84,845.09 7924,852.308C7923.26,858.707 7922.3,866.338 7922.7,871.59C7923.03,875.84 7924.83,879.874 7926.45,883.821C7928.27,888.281 7930.43,894.002 7933.64,898.354C7937.33,903.366 7943.35,909.026 7948.61,913.894C7953.85,918.758 7962.2,924.326 7965.15,927.564C7966.47,929.01 7966.45,931.369 7966.3,933.32C7966.09,936.198 7964.82,941.641 7963.86,944.831C7963.06,947.485 7962.64,950.683 7960.55,952.457C7958.46,954.232 7954.39,954.975 7951.34,955.479C7948.36,955.972 7945.18,956.199 7942.27,955.479C7939.37,954.76 7936.8,952.412 7933.93,951.162C7930.79,949.795 7926.25,949.052 7923.42,947.277C7920.78,945.619 7918.63,942.745 7916.95,940.514C7915.44,938.508 7914.82,935.934 7913.35,933.895C7911.89,931.857 7909.88,929.89 7908.17,928.283C7906.61,926.808 7905.05,925.232 7903.14,924.254C7899.66,922.48 7890.23,919.386 7887.31,917.635C7886.09,916.908 7885.62,915.167 7885.58,913.75C7885.53,912.215 7886.68,910.177 7887.02,908.426C7887.35,906.72 7887.38,904.97 7887.6,903.246C7887.86,901.16 7888.7,898.066 7888.6,895.908C7888.52,893.966 7887.37,892.208 7887.02,890.296C7886.66,888.329 7886.42,885.739 7886.44,884.108C7886.46,882.886 7886.98,881.72 7887.16,880.511C7887.43,878.76 7887.79,875.643 7888.03,873.604C7888.24,871.831 7888.77,870.057 7888.6,868.28C7888.36,865.762 7887.4,861.724 7886.59,858.496C7885.51,854.227 7883.81,847.008 7882.13,842.667C7880.73,839.044 7878.44,835.826 7876.52,832.451C7874.57,829.046 7872.19,825.798 7870.47,822.235C7868.48,818.11 7865.72,812.114 7864.57,807.701C7863.56,803.836 7863.57,799.14 7863.57,795.758C7863.57,792.956 7864.13,790.179 7864.57,787.413C7865.12,783.983 7866.15,779.163 7866.88,775.182C7867.58,771.302 7868.62,766.86 7868.89,763.526C7869.11,760.749 7869.26,757.848 7868.46,755.181C7867.55,752.159 7864.95,748.732 7863.42,745.396C7861.48,741.151 7858.71,735.056 7856.8,729.712C7854.76,724.004 7852.75,717.423 7851.19,711.15C7849.51,704.387 7848.47,696.417 7846.73,689.134C7844.14,678.27 7838.96,658.941 7835.65,645.966C7832.7,634.412 7828.65,622.584 7826.87,611.288C7825.16,600.373 7825.86,584.644 7825,578.193C7824.71,576.04 7822.31,573.516 7821.69,572.581C7821.62,572.478 7821.39,572.478 7821.32,572.581C7820.71,573.516 7818.3,576.04 7818.01,578.193C7817.15,584.644 7817.86,600.373 7816.14,611.288C7814.37,622.584 7810.31,634.412 7807.36,645.966C7804.06,658.941 7798.88,678.27 7796.29,689.134C7794.55,696.417 7793.5,704.387 7791.82,711.15C7790.27,717.423 7788.25,724.004 7786.21,729.712C7784.31,735.056 7781.54,741.151 7779.59,745.396C7778.07,748.732 7775.47,752.159 7774.56,755.181C7773.75,757.848 7773.91,760.749 7774.13,763.526C7774.39,766.86 7775.44,771.302 7776.14,775.182C7776.86,779.163 7777.89,783.983 7778.44,787.413C7778.89,790.179 7779.45,792.956 7779.45,795.758C7779.45,799.14 7779.45,803.836 7778.44,807.701C7777.29,812.114 7774.53,818.11 7772.54,822.235C7770.82,825.798 7768.44,829.046 7766.5,832.451C7764.57,835.826 7762.29,839.044 7760.89,842.667C7759.21,847.008 7757.51,854.227 7756.43,858.496C7755.61,861.724 7754.65,865.762 7754.41,868.28C7754.24,870.057 7754.78,871.831 7754.99,873.604C7755.23,875.643 7755.59,878.76 7755.85,880.511C7756.03,881.72 7756.55,882.886 7756.57,884.108C7756.6,885.739 7756.36,888.329 7756,890.296C7755.65,892.208 7754.5,893.966 7754.41,895.908C7754.32,898.066 7755.16,901.16 7755.42,903.246C7755.64,904.97 7755.67,906.72 7756,908.426C7756.33,910.177 7757.48,912.215 7757.44,913.75C7757.39,915.167 7756.92,916.908 7755.71,917.635C7752.78,919.386 7743.36,922.48 7739.88,924.254C7737.97,925.232 7736.41,926.808 7734.84,928.283C7733.14,929.89 7731.13,931.857 7729.66,933.895C7728.2,935.934 7727.58,938.508 7726.07,940.514C7724.39,942.745 7722.24,945.619 7719.59,947.277C7716.76,949.052 7712.23,949.795 7709.09,951.162C7706.22,952.412 7703.64,954.76 7700.74,955.479C7697.84,956.199 7694.66,955.972 7691.68,955.479C7688.63,954.975 7684.55,954.232 7682.47,952.457C7680.38,950.683 7679.95,947.485 7679.16,944.831C7678.2,941.641 7676.93,936.198 7676.71,933.32C7676.57,931.369 7676.54,929.01 7677.86,927.564C7680.81,924.326 7689.16,918.758 7694.41,913.894C7699.66,909.026 7705.68,903.366 7709.38,898.354C7712.58,894.002 7714.75,888.281 7716.57,883.821C7718.18,879.874 7719.98,875.84 7720.31,871.59C7720.72,866.338 7719.76,858.707 7719.02,852.308C7718.18,845.09 7716.26,835.449 7715.27,828.278C7714.41,821.965 7713.07,815.656 7713.12,809.284C7713.16,802.377 7714.46,793.552 7715.56,786.837C7716.55,780.81 7718.02,774.856 7719.74,768.994C7721.58,762.687 7724.99,754.461 7726.64,748.993C7727.91,744.795 7729.5,740.57 7729.66,736.187C7729.83,731.75 7728.13,726.882 7727.65,722.373C7727.18,717.976 7726.83,713.068 7726.79,709.135C7726.74,705.677 7727.25,702.232 7727.36,698.775C7727.58,692.276 7728.27,679.686 7728.08,670.14C7727.89,660.236 7726.36,649.629 7726.21,639.347C7726.04,628.195 7726.16,615.238 7727.07,603.23C7728.01,590.975 7730.24,577.929 7731.82,565.818C7733.36,554.061 7734.93,542.308 7736.57,530.564C7738.27,518.381 7740.14,503.417 7742.04,492.721C7743.61,483.863 7745.99,474.974 7747.94,466.388C7749.84,457.99 7752.85,448.666 7753.69,441.207C7754.42,434.721 7753.99,428.086 7752.97,421.638C7751.75,413.868 7748.23,401.181 7746.36,394.586C7745.14,390.308 7743.21,385.689 7741.75,382.067C7740.49,378.942 7738.75,374.993 7737.58,372.858C7736.84,371.513 7735.47,369.237 7734.7,369.261C7733.93,369.285 7733.39,371.693 7732.97,373.002C7732.3,375.112 7731.88,379.101 7730.67,381.923C7728.78,386.336 7723.96,395.161 7721.61,399.478C7720.05,402.332 7717.41,405.21 7716.57,407.824C7715.82,410.153 7716.37,412.724 7716.57,415.163C7716.95,419.959 7718.7,430.127 7718.87,436.603C7719.02,442.42 7718.41,448.253 7717.58,454.014C7716.5,461.496 7714,473.559 7712.4,481.497C7711.03,488.238 7709.3,495.455 7707.94,501.642C7706.69,507.301 7705.23,513.489 7704.19,518.621C7703.27,523.206 7702.04,528.214 7701.75,532.435C7701.49,536.271 7701.44,540.829 7702.47,543.946C7703.41,546.806 7706.66,548.412 7707.94,551.141C7709.81,555.146 7712.47,563.156 7713.69,567.976C7714.69,571.915 7714.82,576.154 7715.27,580.063C7715.72,583.846 7716.35,588.049 7716.43,591.431C7716.49,594.414 7716.16,598.338 7715.71,600.352C7715.43,601.572 7714.51,603.014 7713.69,603.518C7712.88,604.022 7711.48,604.069 7710.81,603.374C7709.81,602.319 7708.52,599.334 7707.65,597.187C7706.57,594.525 7705.27,589.512 7704.34,587.402C7703.84,586.279 7702.92,584.692 7702.04,584.524C7701.15,584.356 7699.76,585.477 7699.01,586.395C7698.06,587.57 7696.71,590.016 7696.28,591.575C7695.91,592.916 7696.18,594.377 7696.42,595.748C7696.76,597.666 7697.55,600.976 7698.3,603.086C7698.95,604.948 7699.3,607.283 7700.89,608.41C7702.47,609.537 7705.61,609.537 7707.79,609.849C7709.84,610.142 7712.04,610.713 7713.98,610.281C7715.92,609.849 7718.18,607.379 7719.45,607.259C7720.49,607.16 7721.7,608.514 7721.61,609.561C7721.49,610.88 7720.13,613.607 7718.73,615.173C7717.29,616.78 7715.27,618.768 7712.97,619.202C7709.16,619.922 7699.66,620.329 7695.85,619.49C7693.3,618.928 7691.52,616.355 7690.09,614.166C7687.89,610.784 7684.51,603.47 7682.61,599.201C7681.08,595.748 7679.09,592.314 7678.73,588.553C7677.96,580.567 7678.03,559.415 7678.01,551.285C7677.99,547.443 7678.73,542.316 7678.58,539.773C7678.51,538.44 7677.25,537.364 7677.14,536.032C7677,534.234 7677.44,531.323 7677.72,528.982C7678.01,526.535 7678.83,523.926 7678.87,521.355C7678.94,516.823 7678.59,508.298 7678.15,501.786C7677.6,493.68 7676.14,479.746 7675.56,472.72C7675.2,468.36 7674.86,463.942 7674.7,459.625C7674.53,455.359 7674.2,451.073 7674.55,446.819C7674.96,441.927 7676.29,435.788 7677.14,430.271C7678.01,424.707 7679.41,419.104 7679.73,413.436C7680.14,406.337 7679.3,396.26 7679.59,387.679C7679.93,377.679 7680.84,362.354 7681.75,353.433C7682.41,346.945 7683.95,340.386 7685.06,334.151C7686.13,328.102 7687.31,321.057 7688.37,316.021C7689.22,311.956 7690.9,308.058 7691.39,303.934C7692.08,298.01 7691.51,286.475 7692.54,280.479C7693.3,276.046 7695.16,271.752 7697.57,267.96C7700.07,264.051 7703.52,259.913 7707.5,257.025C7711.51,254.123 7716.64,252.001 7721.61,250.549C7726.69,249.063 7734.12,248.823 7738.01,248.103C7740.36,247.669 7742.71,247.13 7744.92,246.233C7747.22,245.297 7749.34,243.319 7751.82,242.491C7754.99,241.436 7759.94,240.996 7763.91,239.901C7767.91,238.798 7772.77,237.485 7775.85,235.872C7778.41,234.536 7780.61,232.482 7782.4,230.224C7784.25,227.898 7785.82,224.763 7786.93,221.915C7788.03,219.109 7788.69,216.123 7789.09,213.137C7789.55,209.78 7790.22,204.912 7789.67,201.77C7789.18,199.002 7786.67,196.83 7785.78,194.287C7784.91,191.801 7784.63,188.484 7784.34,186.517C7784.15,185.185 7784.65,183.352 7784.06,182.488C7783.45,181.625 7781.64,182.094 7780.74,181.337C7779.31,180.114 7776.88,177.26 7775.42,175.15C7774.03,173.139 7772.66,171.02 7771.97,168.675C7771.2,166.085 7770.82,162.631 7770.82,159.609C7770.82,156.588 7771.37,152.798 7771.97,150.544C7772.4,148.905 7773.6,146.659 7774.41,146.083C7775.13,145.575 7776.21,147.211 7776.86,147.091C7777.51,146.971 7778.23,146.11 7778.3,145.364C7778.44,143.853 7777.72,140.479 7777.72,138.025C7777.72,134.308 7777.56,127.521 7778.3,123.061C7778.98,118.976 7780.15,114.677 7782.18,111.261C7784.22,107.846 7787.23,104.858 7790.53,102.568C7793.92,100.215 7798.88,98.322 7802.53,97.146C7805.72,96.12 7809.27,95.857 7812.43,95.51C7815.44,95.18 7818.49,95.066 7821.51,95.066Z" style="fill:none;stroke:black;stroke-width:5.98px;"/>
                </g>
                <g transform="matrix(1.01117,0,0,1.01117,-85.2559,-10.7)">
                    <rect x="7648.67" y="95.066" width="353.231" height="862.551" style="fill:none;"/>
                </g>
            </g>
        </g>
    </g>
</svg>
