<?xml version="1.0" encoding="UTF-8" standalone="no"?>
<!DOCTYPE svg PUBLIC "-//W3C//DTD SVG 1.1//EN" "http://www.w3.org/Graphics/SVG/1.1/DTD/svg11.dtd">
<svg width="100%" height="100%" viewBox="0 0 358 873" version="1.1" xmlns="http://www.w3.org/2000/svg" xmlns:xlink="http://www.w3.org/1999/xlink" xml:space="preserve" xmlns:serif="http://www.serif.com/" style="fill-rule:evenodd;clip-rule:evenodd;stroke-linecap:square;stroke-linejoin:round;stroke-miterlimit:1.5;">
    <g transform="matrix(1,0,0,1,-8159.74,-13.4283)">
        <g transform="matrix(1,0,0,1,-0.207349,0)">
            <g id="Body-female" serif:id="Body female" transform="matrix(1,0,0,1,0,-72)">
                <g id="Body-Female" serif:id="Body Female" transform="matrix(1,0,0,1,203.506,-17.2006)">
                    <path d="M8135.03,570.049C8134.23,570.049 8133.14,569.669 8132.64,570.295C8131.46,571.758 8129.19,575.823 8127.97,578.828C8126.03,583.627 8122.62,592.77 8120.97,599.088C8119.47,604.857 8118.53,610.793 8118.1,616.739C8117.61,623.646 8117.81,633.252 8118.03,640.529C8118.22,647.168 8119.31,653.765 8119.41,660.406C8119.52,667.901 8119.41,677.161 8118.72,685.501C8117.97,694.454 8116.06,707.193 8114.96,714.126C8114.26,718.496 8113.27,722.977 8112.12,727.095C8111,731.084 8109.05,735.153 8108.05,738.837C8107.13,742.227 8106.62,745.72 8106.13,749.197C8105.62,752.791 8105.06,756.648 8104.98,760.401C8104.89,764.673 8105.36,770.455 8105.59,774.829C8105.8,778.771 8106.29,782.7 8106.36,786.647C8106.44,791.15 8106.4,796.788 8106.05,801.842C8105.64,807.764 8104.83,816.283 8103.9,822.179C8103.11,827.256 8101.4,832.821 8100.53,837.221C8099.78,840.983 8099.28,844.789 8098.69,848.579C8097.94,853.324 8096.77,860.384 8096.08,865.692C8095.44,870.589 8094.89,875.656 8094.54,880.427C8094.21,885.048 8093.97,890.966 8094.01,894.317C8094.03,896.405 8094.24,898.513 8094.77,900.533C8095.31,902.593 8096.55,904.985 8097.23,906.673C8097.76,908.004 8098.62,909.245 8098.84,910.664C8099.11,912.441 8099.17,915.69 8098.84,917.34C8098.59,918.579 8097.69,919.628 8096.84,920.563C8095.32,922.239 8091.88,924.918 8089.71,927.393C8087.52,929.888 8085.26,933.021 8083.72,935.528C8082.4,937.695 8081.53,940.747 8080.5,942.435C8079.73,943.685 8078.68,944.778 8077.51,945.658C8075.66,947.04 8071.9,948.843 8069.45,950.723C8067.03,952.572 8065.65,955.953 8062.77,956.939C8059.6,958.027 8053.72,957.553 8050.41,957.246C8047.84,957.007 8044.52,956.057 8042.97,955.097C8041.82,954.386 8041.49,952.79 8041.13,951.491C8040.64,949.764 8040.49,946.464 8040.06,944.737C8039.74,943.47 8038.64,942.431 8038.52,941.13C8038.38,939.647 8038.24,937.329 8039.21,935.835C8040.93,933.187 8046.03,928.736 8048.8,925.245C8051.4,921.973 8053.64,918.424 8055.86,914.884C8058.97,909.934 8065.28,899.485 8067.45,895.545C8068.18,894.221 8068.7,892.745 8068.91,891.248C8069.24,888.933 8069.63,884.763 8069.45,881.655C8069.27,878.594 8068.37,875.619 8067.84,872.599C8066.54,865.257 8063.33,847.837 8061.7,837.605C8060.29,828.831 8059,820.035 8058.01,811.205C8056.99,802.085 8055.81,790.075 8055.56,782.887C8055.38,777.943 8055.55,772.934 8056.48,768.076C8057.42,763.139 8060.09,758.322 8061.24,753.264C8062.6,747.227 8064.35,739.075 8064.69,731.853C8065.12,722.58 8064.05,705.786 8063.85,697.626C8063.72,692.714 8064.25,687.741 8063.46,682.891C8062.46,676.752 8059.58,668.192 8057.86,660.789C8056.03,652.936 8054.08,644.151 8052.49,635.771C8050.66,626.14 8048.46,612.352 8046.89,603.002C8045.58,595.23 8043.7,587.36 8043.05,579.672C8042.4,572.102 8042.71,564.473 8042.97,556.88C8043.24,549.142 8044.02,540.252 8044.66,533.243C8045.22,527.088 8045.81,519.788 8046.81,514.825C8047.6,510.907 8049.14,507.167 8050.65,503.467C8052.4,499.169 8055.52,493.12 8057.32,489.039C8058.79,485.724 8060.26,482.404 8061.47,478.986C8062.71,475.469 8063.96,471.44 8064.77,467.935C8065.52,464.656 8065.28,461.165 8066.3,457.959C8067.55,454.019 8070.28,448.826 8072.29,444.298C8074.29,439.787 8076.89,434.194 8078.35,430.792C8079.32,428.521 8080.49,426.293 8081.03,423.885C8081.6,421.416 8082.06,418.605 8081.73,415.98C8081.32,412.732 8079.83,408.195 8078.58,404.392C8076.88,399.212 8073.72,390.758 8071.52,384.9C8069.55,379.652 8067.17,373.529 8065.38,369.244C8063.96,365.843 8061.95,360.252 8060.78,359.191C8059.68,358.202 8058.85,361.497 8058.32,362.875C8057.12,366.008 8054.97,372.901 8053.56,377.993C8051.89,384.043 8049.71,393.431 8048.27,399.174C8047.15,403.602 8045.49,408.562 8044.89,412.45C8044.38,415.763 8044.62,419.152 8044.66,422.504C8044.71,427.3 8045.2,435.946 8045.2,441.229C8045.2,445.556 8045.4,449.935 8044.66,454.198C8043.65,460.018 8041.06,468.851 8039.13,476.147C8037,484.256 8033.72,496.087 8031.84,502.853C8030.55,507.495 8028.95,512.702 8027.85,516.744C8026.92,520.18 8025.99,524.162 8025.24,527.104C8024.63,529.534 8023.71,532.079 8023.4,534.394C8023.11,536.575 8022.93,538.846 8023.4,540.994C8023.94,543.424 8025.41,546.443 8026.62,548.975C8027.82,551.464 8029.85,553.56 8030.69,556.189C8031.79,559.63 8032.69,566.23 8033.23,569.619C8033.59,571.904 8033.86,574.213 8033.91,576.526C8033.98,579.468 8034.18,586.055 8033.61,587.27C8033.03,588.485 8031.28,585.142 8030.46,583.817C8028.84,581.182 8025.59,572.766 8023.86,571.461C8022.3,570.278 8020.91,574.2 8020.1,575.989C8019.02,578.406 8017.88,583.318 8017.34,585.965C8016.95,587.902 8016.74,590.097 8016.88,591.875C8017.01,593.514 8017.57,595.106 8018.18,596.633C8019.13,598.999 8021.64,603.949 8022.56,606.072C8023.02,607.141 8023.49,608.323 8023.71,609.372C8023.91,610.35 8024.63,612.109 8023.86,612.365C8023.1,612.621 8020.33,612.02 8019.1,610.907C8017.34,609.308 8015.14,605.535 8013.27,602.772C8010.38,598.5 8004.19,589.368 8001.76,585.275C8000.45,583.068 7998.94,580.768 7998.69,578.214C7998.28,574.083 7998.73,566.372 7999.3,560.487C8000.02,553.132 8002.09,541.045 8002.99,534.087C8003.65,528.982 8004.51,523.883 8004.68,518.739C8004.95,510.412 8004.45,495.664 8004.6,484.128C8004.75,471.939 8004.98,454.978 8005.6,445.603C8005.99,439.639 8007.18,433.749 8008.28,427.876C8009.55,421.135 8011.65,411.836 8013.2,405.16C8014.54,399.351 8016.52,393.684 8017.57,387.816C8019.09,379.336 8021.03,362.555 8022.33,354.279C8023.17,348.881 8024.31,343.533 8025.32,338.163C8026.37,332.587 8027.78,326.644 8028.62,320.82C8029.48,314.872 8029.76,307.441 8030.46,302.478C8031.01,298.623 8031.51,294.561 8032.84,291.043C8034.16,287.559 8036,284.189 8038.44,281.374C8040.94,278.496 8044.23,275.606 8047.81,273.776C8052.33,271.461 8059.75,269.775 8065.61,267.483C8071.53,265.168 8077.4,262.339 8083.34,259.886C8089.72,257.251 8099.15,253.772 8103.9,251.674C8106.68,250.451 8110.3,248.579 8111.89,247.3C8112.83,246.539 8113.23,245.199 8113.42,244C8113.66,242.453 8113.64,239.626 8113.34,238.014C8113.1,236.685 8112.69,235.202 8111.66,234.331C8109.67,232.655 8104.88,230.045 8101.45,227.961C8097.73,225.697 8092.64,223.177 8089.32,220.747C8086.45,218.639 8083.15,215.081 8081.57,213.38C8080.82,212.571 8080.02,211.633 8079.88,210.54C8079.65,208.686 8079.84,204.995 8080.19,202.252C8080.57,199.234 8081.35,195.665 8082.19,192.429C8083.08,188.95 8084.64,185.049 8085.56,181.378C8086.47,177.763 8087.07,173.781 8087.71,170.404C8088.3,167.313 8088.94,164.23 8089.4,161.118C8089.87,157.946 8089.87,154.352 8090.55,151.372C8091.19,148.563 8092.24,145.795 8093.47,143.237C8094.69,140.69 8096.09,138.175 8097.92,136.023C8099.82,133.785 8102.38,131.641 8104.9,129.807C8107.49,127.927 8110.65,126.047 8113.42,124.742C8116.01,123.524 8118.84,122.76 8121.56,121.979C8124.23,121.209 8127.45,120.419 8129.69,120.061C8131.44,119.782 8134.09,119.869 8134.99,119.831C8135.02,119.829 8135.05,119.829 8135.08,119.831C8135.98,119.869 8138.63,119.782 8140.37,120.061C8142.61,120.419 8145.83,121.209 8148.51,121.979C8151.22,122.76 8154.05,123.524 8156.64,124.742C8159.42,126.047 8162.58,127.927 8165.16,129.807C8167.68,131.641 8170.24,133.785 8172.14,136.023C8173.98,138.175 8175.37,140.69 8176.6,143.237C8177.82,145.795 8178.87,148.563 8179.51,151.372C8180.19,154.352 8180.19,157.946 8180.66,161.118C8181.13,164.23 8181.77,167.313 8182.35,170.404C8182.99,173.781 8183.59,177.763 8184.5,181.378C8185.42,185.049 8186.98,188.95 8187.88,192.429C8188.71,195.665 8189.49,199.234 8189.87,202.252C8190.22,204.995 8190.41,208.686 8190.18,210.54C8190.04,211.633 8189.24,212.571 8188.49,213.38C8186.92,215.081 8183.61,218.639 8180.74,220.747C8177.43,223.177 8172.34,225.697 8168.61,227.961C8165.19,230.045 8160.39,232.655 8158.41,234.331C8157.38,235.202 8156.96,236.685 8156.72,238.014C8156.43,239.626 8156.4,242.453 8156.64,244C8156.83,245.199 8157.23,246.539 8158.18,247.3C8159.76,248.579 8163.38,250.451 8166.16,251.674C8170.92,253.772 8180.34,257.251 8186.73,259.886C8192.67,262.339 8198.53,265.168 8204.45,267.483C8210.32,269.775 8217.73,271.461 8222.26,273.776C8225.84,275.606 8229.13,278.496 8231.62,281.374C8234.06,284.189 8235.9,287.559 8237.22,291.043C8238.55,294.561 8239.06,298.623 8239.6,302.478C8240.3,307.441 8240.59,314.872 8241.44,320.82C8242.28,326.644 8243.69,332.587 8244.74,338.163C8245.75,343.533 8246.89,348.881 8247.74,354.279C8249.03,362.555 8250.97,379.336 8252.49,387.816C8253.55,393.684 8255.52,399.351 8256.87,405.16C8258.42,411.836 8260.51,421.135 8261.78,427.876C8262.88,433.749 8264.08,439.639 8264.47,445.603C8265.08,454.978 8265.31,471.939 8265.46,484.128C8265.61,495.664 8265.12,510.412 8265.39,518.739C8265.55,523.883 8266.42,528.982 8267.08,534.087C8267.97,541.045 8270.04,553.132 8270.76,560.487C8271.33,566.372 8271.78,574.083 8271.37,578.214C8271.12,580.768 8269.61,583.068 8268.3,585.275C8265.87,589.368 8259.68,598.5 8256.79,602.772C8254.92,605.535 8252.72,609.308 8250.96,610.907C8249.73,612.02 8246.97,612.621 8246.2,612.365C8245.43,612.109 8246.15,610.35 8246.35,609.372C8246.57,608.323 8247.04,607.141 8247.51,606.072C8248.43,603.949 8250.93,598.999 8251.88,596.633C8252.49,595.106 8253.06,593.514 8253.18,591.875C8253.33,590.097 8253.12,587.902 8252.72,585.965C8252.19,583.318 8251.05,578.406 8249.96,575.989C8249.16,574.2 8247.77,570.278 8246.2,571.461C8244.47,572.766 8241.23,581.182 8239.6,583.817C8238.78,585.142 8237.03,588.485 8236.45,587.27C8235.88,586.055 8236.08,579.468 8236.15,576.526C8236.2,574.213 8236.48,571.904 8236.84,569.619C8237.38,566.23 8238.27,559.63 8239.37,556.189C8240.21,553.56 8242.24,551.464 8243.44,548.975C8244.65,546.443 8246.12,543.424 8246.66,540.994C8247.14,538.846 8246.95,536.575 8246.66,534.394C8246.35,532.079 8245.43,529.534 8244.82,527.104C8244.08,524.162 8243.15,520.18 8242.21,516.744C8241.11,512.702 8239.51,507.495 8238.22,502.853C8236.34,496.087 8233.07,484.256 8230.93,476.147C8229.01,468.851 8226.41,460.018 8225.4,454.198C8224.66,449.935 8224.87,445.556 8224.87,441.229C8224.87,435.946 8225.35,427.3 8225.4,422.504C8225.44,419.152 8225.69,415.763 8225.17,412.45C8224.57,408.562 8222.91,403.602 8221.8,399.174C8220.35,393.431 8218.18,384.043 8216.5,377.993C8215.09,372.901 8212.95,366.008 8211.74,362.875C8211.22,361.497 8210.38,358.202 8209.29,359.191C8208.11,360.252 8206.1,365.843 8204.68,369.244C8202.89,373.529 8200.51,379.652 8198.54,384.9C8196.34,390.758 8193.18,399.212 8191.48,404.392C8190.24,408.195 8188.75,412.732 8188.34,415.98C8188.01,418.605 8188.47,421.416 8189.03,423.885C8189.58,426.293 8190.74,428.521 8191.71,430.792C8193.17,434.194 8195.78,439.787 8197.78,444.298C8199.78,448.826 8202.51,454.019 8203.76,457.959C8204.78,461.165 8204.54,464.656 8205.3,467.935C8206.1,471.44 8207.36,475.469 8208.6,478.986C8209.8,482.404 8211.28,485.724 8212.74,489.039C8214.55,493.12 8217.67,499.169 8219.42,503.467C8220.93,507.167 8222.47,510.907 8223.26,514.825C8224.25,519.788 8224.84,527.088 8225.4,533.243C8226.04,540.252 8226.82,549.142 8227.09,556.88C8227.36,564.473 8227.66,572.102 8227.01,579.672C8226.36,587.36 8224.49,595.23 8223.18,603.002C8221.6,612.352 8219.41,626.14 8217.58,635.771C8215.99,644.151 8214.03,652.936 8212.2,660.789C8210.48,668.192 8207.6,676.752 8206.6,682.891C8205.81,687.741 8206.34,692.714 8206.22,697.626C8206.01,705.786 8204.94,722.58 8205.37,731.853C8205.71,739.075 8207.46,747.227 8208.83,753.264C8209.97,758.322 8212.64,763.139 8213.59,768.076C8214.52,772.934 8214.68,777.943 8214.51,782.887C8214.25,790.075 8213.07,802.085 8212.05,811.205C8211.06,820.035 8209.77,828.831 8208.37,837.605C8206.73,847.837 8203.52,865.257 8202.23,872.599C8201.7,875.619 8200.79,878.594 8200.62,881.655C8200.44,884.763 8200.82,888.933 8201.15,891.248C8201.37,892.745 8201.88,894.221 8202.61,895.545C8204.78,899.485 8211.09,909.934 8214.2,914.884C8216.42,918.424 8218.66,921.973 8221.26,925.245C8224.03,928.736 8229.14,933.187 8230.85,935.835C8231.82,937.329 8231.68,939.647 8231.54,941.13C8231.42,942.431 8230.33,943.47 8230.01,944.737C8229.57,946.464 8229.42,949.764 8228.93,951.491C8228.57,952.79 8228.24,954.386 8227.09,955.097C8225.54,956.057 8222.22,957.007 8219.65,957.246C8216.35,957.553 8210.46,958.027 8207.29,956.939C8204.42,955.953 8203.03,952.572 8200.62,950.723C8198.16,948.843 8194.4,947.04 8192.56,945.658C8191.39,944.778 8190.33,943.685 8189.57,942.435C8188.53,940.747 8187.67,937.695 8186.34,935.528C8184.81,933.021 8182.54,929.888 8180.36,927.393C8178.19,924.918 8174.74,922.239 8173.22,920.563C8172.37,919.628 8171.47,918.579 8171.22,917.34C8170.89,915.69 8170.95,912.441 8171.22,910.664C8171.44,909.245 8172.3,908.004 8172.84,906.673C8173.51,904.985 8174.75,902.593 8175.29,900.533C8175.82,898.513 8176.03,896.405 8176.06,894.317C8176.1,890.966 8175.86,885.048 8175.52,880.427C8175.18,875.656 8174.62,870.589 8173.99,865.692C8173.3,860.384 8172.12,853.324 8171.38,848.579C8170.78,844.789 8170.28,840.983 8169.53,837.221C8168.66,832.821 8166.95,827.256 8166.16,822.179C8165.24,816.283 8164.42,807.764 8164.01,801.842C8163.66,796.788 8163.63,791.15 8163.7,786.647C8163.77,782.7 8164.26,778.771 8164.47,774.829C8164.7,770.455 8165.17,764.673 8165.08,760.401C8165.01,756.648 8164.44,752.791 8163.93,749.197C8163.44,745.72 8162.93,742.227 8162.01,738.837C8161.02,735.153 8159.06,731.084 8157.95,727.095C8156.8,722.977 8155.8,718.496 8155.11,714.126C8154.01,707.193 8152.09,694.454 8151.35,685.501C8150.66,677.161 8150.54,667.901 8150.66,660.406C8150.76,653.765 8151.84,647.168 8152.04,640.529C8152.26,633.252 8152.45,623.646 8151.96,616.739C8151.54,610.793 8150.59,604.857 8149.09,599.088C8147.45,592.77 8144.04,583.627 8142.09,578.828C8140.87,575.823 8138.6,571.758 8137.43,570.295C8136.92,569.669 8135.83,570.049 8135.03,570.049Z" style="fill:none;stroke:black;stroke-width:5.98px;"/>
                </g>
                <g transform="matrix(1.01117,0,0,1.01117,425.811,-10.7)">
                    <rect x="7648.67" y="95.066" width="353.231" height="862.551" style="fill:none;"/>
                </g>
            </g>
        </g>
    </g>
</svg>
